<?xml version="1.0" encoding="UTF-8" standalone="no"?>
<!DOCTYPE svg PUBLIC "-//W3C//DTD SVG 1.1//EN" "http://www.w3.org/Graphics/SVG/1.1/DTD/svg11.dtd">
<!-- Generated by Microsoft Visio, SVG Export Visio Use_Case.svg Pagina-1 -->
<svg xmlns="http://www.w3.org/2000/svg" xmlns:xlink="http://www.w3.org/1999/xlink" xmlns:ev="http://www.w3.org/2001/xml-events"
		xmlns:v="http://schemas.microsoft.com/visio/2003/SVGExtensions/" width="11.6929in" height="8.26772in"
		viewBox="0 0 841.89 595.276" xml:space="preserve" color-interpolation-filters="sRGB" class="st6">
	<v:documentProperties v:langID="1043" v:metric="true" v:viewMarkup="false">
		<v:userDefs>
			<v:ud v:nameU="msvNoAutoConnect" v:prompt="" v:val="VT0(0):26"/>
		</v:userDefs>
	</v:documentProperties>

	<style type="text/css">
	<![CDATA[
		.st1 {fill:#73ae42;stroke:#ffffff;stroke-linecap:round;stroke-linejoin:round;stroke-width:0.5}
		.st2 {fill:#73ae42;font-family:Calibri;font-size:1.00001em}
		.st3 {fill:#5b9bd5;stroke:#ffffff;stroke-linecap:round;stroke-linejoin:round;stroke-width:0.5}
		.st4 {fill:#ffffff;font-family:Calibri;font-size:1.00001em}
		.st5 {stroke:#5592c9;stroke-linecap:round;stroke-linejoin:round;stroke-width:0.5}
		.st6 {fill:none;fill-rule:evenodd;font-size:12px;overflow:visible;stroke-linecap:square;stroke-miterlimit:3}
	]]>
	</style>

	<g v:mID="0" v:index="1" v:groupContext="foregroundPage">
		<v:userDefs>
			<v:ud v:nameU="msvThemeOrder" v:val="VT0(0):26"/>
		</v:userDefs>
		<title>Use_Case_Hoofdprocessen_Het_Proeflokaal</title>
		<v:pageProperties v:drawingScale="0.0393701" v:pageScale="0.0393701" v:drawingUnits="24" v:shadowOffsetX="8.50394"
				v:shadowOffsetY="-8.50394"/>
		<v:layer v:name="Verbindingslijn" v:index="0"/>
		<g id="shape1-1" v:mID="1" v:groupContext="shape" transform="translate(70.8661,-425.197)">
			<title>Actor</title>
			<desc>Klant</desc>
			<v:userDefs>
				<v:ud v:nameU="visVersion" v:prompt="" v:val="VT0(15):26"/>
			</v:userDefs>
			<v:textBlock v:margins="rect(4,4,4,4)" v:tabSpace="42.5197"/>
			<v:textRect cx="17.0079" cy="606.477" width="35.78" height="22.4037"/>
			<path d="M6.8 595.28 L6.8 559.84 L6.8 574.02 L0 574.02 L0 545.67 L3.4 542.13 L30.61 542.13 L34.02 545.67 L34.02 574.02
						 L27.21 574.02 L27.21 559.84 L27.21 595.28 L17.01 595.28 L17.01 566.93 L17.01 595.28 L6.8 595.28 ZM24.09
						 531.5 A7.08661 7.08661 -180 1 0 9.92 531.5 A7.08661 7.08661 -180 1 0 24.09 531.5 Z" class="st1"/>
			<text x="4.48" y="610.08" class="st2" v:langID="1045"><v:paragraph v:horizAlign="1"/><v:tabList/>Klant</text>		</g>
		<g id="shape2-4" v:mID="2" v:groupContext="shape" transform="translate(646.299,-425.197)">
			<title>Actor.2</title>
			<desc>Mederwerker</desc>
			<v:userDefs>
				<v:ud v:nameU="visVersion" v:prompt="" v:val="VT0(15):26"/>
			</v:userDefs>
			<v:textBlock v:margins="rect(4,4,4,4)" v:tabSpace="42.5197"/>
			<v:textRect cx="17.0079" cy="606.477" width="80.47" height="22.4037"/>
			<path d="M6.8 595.28 L6.8 559.84 L6.8 574.02 L0 574.02 L0 545.67 L3.4 542.13 L30.61 542.13 L34.02 545.67 L34.02 574.02
						 L27.21 574.02 L27.21 559.84 L27.21 595.28 L17.01 595.28 L17.01 566.93 L17.01 595.28 L6.8 595.28 ZM24.09
						 531.5 A7.08661 7.08661 -180 1 0 9.92 531.5 A7.08661 7.08661 -180 1 0 24.09 531.5 Z" class="st1"/>
			<text x="-16.51" y="610.08" class="st2" v:langID="1045"><v:paragraph v:horizAlign="1"/><v:tabList/>Mederwerker  </text>		</g>
		<g id="shape3-7" v:mID="3" v:groupContext="shape" transform="translate(70.8661,-263.339)">
			<title>Actor.3</title>
			<desc>Eigenaar</desc>
			<v:userDefs>
				<v:ud v:nameU="visVersion" v:prompt="" v:val="VT0(15):26"/>
			</v:userDefs>
			<v:textBlock v:margins="rect(4,4,4,4)" v:tabSpace="42.5197"/>
			<v:textRect cx="17.0079" cy="606.477" width="52.94" height="22.4037"/>
			<path d="M6.8 595.28 L6.8 559.84 L6.8 574.02 L0 574.02 L0 545.67 L3.4 542.13 L30.61 542.13 L34.02 545.67 L34.02 574.02
						 L27.21 574.02 L27.21 559.84 L27.21 595.28 L17.01 595.28 L17.01 566.93 L17.01 595.28 L6.8 595.28 ZM24.09
						 531.5 A7.08661 7.08661 -180 1 0 9.92 531.5 A7.08661 7.08661 -180 1 0 24.09 531.5 Z" class="st1"/>
			<text x="-4.1" y="610.08" class="st2" v:langID="1045"><v:paragraph v:horizAlign="1"/><v:tabList/>Eigenaar</text>		</g>
		<g id="shape4-10" v:mID="4" v:groupContext="shape" transform="translate(317.049,-493.228)">
			<title>Use-case</title>
			<desc>1 Beheer reservering</desc>
			<v:userDefs>
				<v:ud v:nameU="visVersion" v:prompt="" v:val="VT0(15):26"/>
			</v:userDefs>
			<v:textBlock v:margins="rect(4,4,4,4)" v:tabSpace="42.5197"/>
			<v:textRect cx="57.5743" cy="578.268" width="115.15" height="34.0157"/>
			<ellipse cx="57.5743" cy="578.268" rx="57.5743" ry="17.0079" class="st3"/>
			<text x="6.71" y="581.87" class="st4" v:langID="1045"><v:paragraph v:horizAlign="1"/><v:tabList/>1 Beheer reservering  </text>		</g>
		<g id="shape5-13" v:mID="5" v:groupContext="shape" transform="translate(305.256,-300.189)">
			<title>Use-case.5</title>
			<desc>4 Beheren menu-items</desc>
			<v:userDefs>
				<v:ud v:nameU="visVersion" v:prompt="" v:val="VT0(15):26"/>
			</v:userDefs>
			<v:textBlock v:margins="rect(4,4,4,4)" v:tabSpace="42.5197"/>
			<v:textRect cx="61.1606" cy="578.268" width="122.33" height="34.0157"/>
			<ellipse cx="61.1606" cy="578.268" rx="61.1606" ry="17.0079" class="st3"/>
			<text x="5.36" y="581.87" class="st4" v:langID="1045"><v:paragraph v:horizAlign="1"/><v:tabList/>4 Beheren menu-items</text>		</g>
		<g id="shape6-16" v:mID="6" v:groupContext="shape" transform="translate(305.256,-237.543)">
			<title>Use-case.6</title>
			<desc>5 Beheren categorieën</desc>
			<v:userDefs>
				<v:ud v:nameU="visVersion" v:prompt="" v:val="VT0(15):26"/>
			</v:userDefs>
			<v:textBlock v:margins="rect(4,4,4,4)" v:tabSpace="42.5197"/>
			<v:textRect cx="60.7151" cy="578.268" width="121.44" height="34.0157"/>
			<ellipse cx="60.7151" cy="578.268" rx="60.7151" ry="17.0079" class="st3"/>
			<text x="5.36" y="581.87" class="st4" v:langID="1045"><v:paragraph v:horizAlign="1"/><v:tabList/>5 Beheren categorieën</text>		</g>
		<g id="shape7-19" v:mID="7" v:groupContext="shape" transform="translate(297.051,-362.835)">
			<title>Use-case.7</title>
			<desc>3 Beheren subcategorieën</desc>
			<v:userDefs>
				<v:ud v:nameU="visVersion" v:prompt="" v:val="VT0(15):26"/>
			</v:userDefs>
			<v:textBlock v:margins="rect(4,4,4,4)" v:tabSpace="42.5197"/>
			<v:textRect cx="69.3666" cy="578.268" width="138.74" height="34.0157"/>
			<ellipse cx="69.3666" cy="578.268" rx="69.3666" ry="17.0079" class="st3"/>
			<text x="5.36" y="581.87" class="st4" v:langID="1045"><v:paragraph v:horizAlign="1"/><v:tabList/>3 Beheren subcategorieën</text>		</g>
		<g id="shape8-22" v:mID="8" v:groupContext="shape" transform="translate(317.049,-443.622)">
			<title>Use-case.8</title>
			<desc>2 Beheer bestellingen</desc>
			<v:userDefs>
				<v:ud v:nameU="visVersion" v:prompt="" v:val="VT0(15):26"/>
			</v:userDefs>
			<v:textBlock v:margins="rect(4,4,4,4)" v:tabSpace="42.5197"/>
			<v:textRect cx="58.3012" cy="578.268" width="116.61" height="34.0157"/>
			<ellipse cx="58.3012" cy="578.268" rx="58.3012" ry="17.0079" class="st3"/>
			<text x="5.36" y="581.87" class="st4" v:langID="1045"><v:paragraph v:horizAlign="1"/><v:tabList/>2 Beheer bestellingen</text>		</g>
		<g id="shape11-25" v:mID="11" v:groupContext="shape" v:layerMember="0" transform="translate(104.882,-463.572)">
			<title>Dynamische verbindingslijn</title>
			<v:userDefs>
				<v:ud v:nameU="visVersion" v:prompt="" v:val="VT0(15):26"/>
			</v:userDefs>
			<path d="M0 595.28 L220.06 557.21" class="st5"/>
		</g>
		<g id="shape12-28" v:mID="12" v:groupContext="shape" v:layerMember="0" transform="translate(646.299,-463.552)">
			<title>Dynamische verbindingslijn.12</title>
			<v:userDefs>
				<v:ud v:nameU="visVersion" v:prompt="" v:val="VT0(15):26"/>
			</v:userDefs>
			<path d="M0 595.28 L-221.91 557.14" class="st5"/>
		</g>
		<g id="shape14-31" v:mID="14" v:groupContext="shape" v:layerMember="0" transform="translate(656.22,-453.543)">
			<title>Dynamische verbindingslijn.14</title>
			<v:userDefs>
				<v:ud v:nameU="visVersion" v:prompt="" v:val="VT0(15):26"/>
			</v:userDefs>
		</g>
		<g id="shape15-32" v:mID="15" v:groupContext="shape" v:layerMember="0" transform="translate(646.299,-453.543)">
			<title>Dynamische verbindingslijn.15</title>
			<v:userDefs>
				<v:ud v:nameU="visVersion" v:prompt="" v:val="VT0(15):26"/>
			</v:userDefs>
			<path d="M0 588.19 L-212.65 588.19" class="st5"/>
		</g>
		<g id="shape20-35" v:mID="20" v:groupContext="shape" v:layerMember="0" transform="translate(104.882,-303.722)">
			<title>Dynamische verbindingslijn.20</title>
			<v:userDefs>
				<v:ud v:nameU="visVersion" v:prompt="" v:val="VT0(15):26"/>
			</v:userDefs>
			<path d="M0 595.28 L216.84 532.16" class="st5"/>
		</g>
		<g id="shape21-38" v:mID="21" v:groupContext="shape" v:layerMember="0" transform="translate(104.882,-299.492)">
			<title>Dynamische verbindingslijn.21</title>
			<v:userDefs>
				<v:ud v:nameU="visVersion" v:prompt="" v:val="VT0(15):26"/>
			</v:userDefs>
			<path d="M0 594.87 L202.03 581.51" class="st5"/>
		</g>
		<g id="shape22-41" v:mID="22" v:groupContext="shape" v:layerMember="0" transform="translate(104.882,-296.067)">
			<title>Dynamische verbindingslijn.22</title>
			<v:userDefs>
				<v:ud v:nameU="visVersion" v:prompt="" v:val="VT0(15):26"/>
			</v:userDefs>
			<path d="M0 595.28 L208.29 628.4" class="st5"/>
		</g>
	</g>
</svg>
